{"title":"Haywire (2011) 475 MB R5 { BLOVES )","uid":7124995,"size":499677931,"categoryP":"video","categoryS":"movies","magnet":"?xt=urn:btih:10710f3f35cac132286883e8003af857c0b13be3&amp;dn=Haywire+%282011%29+475+MB+R5+%7B+BLOVES+%29&amp;tr=udp%3A%2F%2Ftracker.openbittorrent.com%3A80&amp;tr=udp%3A%2F%2Fopen.demonii.com%3A1337&amp;tr=udp%3A%2F%2Ftracker.coppersurfer.tk%3A6969&amp;tr=udp%3A%2F%2Fexodus.desync.com%3A6969","seeders":0,"leechers":0,"uploader":"BLOVES","files":3,"time":1332501512,"description":"Haywire (2011) 475 MB R5 { BLOVES )\n\nImdb: &lt;a href=&quot;\nhttp://www.imdb.com/title/tt1506999/&quot; rel=&quot;nofollow&quot; target=&quot;_NEW&quot;&gt;\nhttp://www.imdb.com/title/tt1506999/&lt;/a&gt;\n\nPlot:\nA black ops super soldier seeks payback after she is betrayed and set up during a mission.\n\n\nNotes:\nREADNFO... WELL CAM AUDIO... IS NOT GOOD BUT WILL DO FOR NOW.... OTHER THAN OUT VIDEO IS SPOT ON...\nADDED FEW FILTERS TO THE VIDEO TO MAKE IT LOOK NICE :) SO ENJOY....\n\n\n\n\nAnything to offer email us @: &lt;a class=&quot;__cf_email__&quot; href=&quot;/cdn-cgi/l/email-protection&quot; data-cfemail=&quot;93a1a5f8d3fbe6e0fbfef2faffbdfef6&quot;&gt;[email&amp;#160;protected]&lt;/a&gt;&lt;script cf-hash='f9e31' type=&quot;text/javascript&quot;&gt;\n/* &lt;![CDATA[ */!function(){try{var t=&quot;currentScript&quot;in document?document.currentScript:function(){for(var t=document.getElementsByTagName(&quot;script&quot;),e=t.length;e--;)if(t[e].getAttribute(&quot;cf-hash&quot;))return t[e]}();if(t&amp;&amp;t.previousSibling){var e,r,n,i,c=t.previousSibling,a=c.getAttribute(&quot;data-cfemail&quot;);if(a){for(e=&quot;&quot;,r=parseInt(a.substr(0,2),16),n=2;a.length-n;n+=2)i=parseInt(a.substr(n,2),16)^r,e+=String.fromCharCode(i);e=document.createTextNode(e),c.parentNode.replaceChild(e,c)}}}catch(u){}}();/* ]]&gt; */&lt;/script&gt;\nVideo\nID : 0\nFormat : MPEG-4 Visual\nFormat profile : Advanced Simple@L5\nFormat settings, BVOP : 2\nFormat settings, QPel : No\nFormat settings, GMC : No warppoints\nFormat settings, Matrix : Default (H.263)\nMuxing mode : Packed bitstream\nCodec ID : XVID\nCodec ID/Hint : XviD\nDuration : 1h 28mn\nBit rate : 2 714 Kbps\nWidth : 720 pixels\nHeight : 528 pixels\nDisplay aspect ratio : 4:3\nFrame rate : 25.000 fps\nColor space : YUV\nChroma subsampling : 4:2:0\nBit depth : 8 bits\nScan type : Progressive\nCompression mode : Lossy\nBits/(Pixel*Frame) : 0.286\nStream size : 1.69 GiB (89%)\nWriting library : XviD 64\n\nAudio\nID : 1\nFormat : AC-3\nFormat/Info : Audio Coding 3\nMode extension : CM (complete main)\nCodec ID : 2000\nDuration : 1h 28mn\nBit rate mode : Constant\nBit rate : 320 Kbps\nChannel(s) : 2 channels\nChannel positions : Front: L R\nSampling rate : 48.0 KHz\nBit depth : 16 bits\nCompression mode : Lossy\nStream size : 204 MiB (11%)\nAlignment : Aligned on interleaves\nInterleave, duration : 64 ms (1.60 video frames)\nInterleave, preload duration : 192 ms\nTitle : HAYWIRE ","torrent":{"xt":"urn:btih:10710f3f35cac132286883e8003af857c0b13be3","amp;dn":"Haywire+%282011%29+475+MB+R5+%7B+BLOVES+%29","amp;tr":["udp%3A%2F%2Ftracker.openbittorrent.com%3A80","udp%3A%2F%2Fopen.demonii.com%3A1337","udp%3A%2F%2Ftracker.coppersurfer.tk%3A6969","udp%3A%2F%2Fexodus.desync.com%3A6969"],"infoHash":"10710f3f35cac132286883e8003af857c0b13be3","infoHashBuffer":{"type":"Buffer","data":[16,113,15,63,53,202,193,50,40,104,131,232,0,58,248,87,192,177,59,227]},"announce":[],"urlList":[]}}